<svg width="16" height="16" fill="none" xmlns="http://www.w3.org/2000/svg"><path d="M13.09 16H5.819a2.909 2.909 0 0 1-2.909-2.909V5.818A2.909 2.909 0 0 1 5.82 2.91h7.272A2.909 2.909 0 0 1 16 5.82v7.272a2.909 2.909 0 0 1-2.91 2.91ZM5.819 4.364a1.455 1.455 0 0 0-1.454 1.454v7.273a1.455 1.455 0 0 0 1.454 1.455h7.273a1.454 1.454 0 0 0 1.455-1.455V5.818a1.455 1.455 0 0 0-1.455-1.454H5.818Z" fill="#FFFFFF"/><path d="M2.91 13.091A2.909 2.909 0 0 1 0 10.181V2.91A2.909 2.909 0 0 1 2.91 0h7.272a2.91 2.91 0 0 1 2.909 2.91h-1.454a1.455 1.455 0 0 0-1.455-1.455H2.909a1.455 1.455 0 0 0-1.454 1.454v7.273a1.455 1.455 0 0 0 1.454 1.454v1.455Z" fill="#FFFFFF"/></svg>
