<svg width="64" height="64" fill="none" xmlns="http://www.w3.org/2000/svg"><path d="m32.154 43.121-12.5 12.5a8.12 8.12 0 0 1-11.275 0 7.955 7.955 0 0 1 0-11.276l12.5-12.5v.001a3.234 3.234 0 1 0-4.575-4.575l-12.5 12.532a14.433 14.433 0 0 0 20.393 20.392l12.532-12.5v.001a3.236 3.236 0 0 0-1.45-5.412 3.234 3.234 0 0 0-3.125.838ZM59.795 4.206a14.464 14.464 0 0 0-20.392 0l-12.532 12.5a3.236 3.236 0 0 0 1.45 5.411 3.235 3.235 0 0 0 3.124-.837l12.5-12.5a8.12 8.12 0 0 1 11.276 0 7.956 7.956 0 0 1 0 11.276l-12.5 12.5a3.221 3.221 0 0 0 0 4.574 3.22 3.22 0 0 0 4.575 0l12.5-12.532h-.001a14.464 14.464 0 0 0 0-20.392ZM21.588 42.412a3.22 3.22 0 0 0 2.287.934 3.221 3.221 0 0 0 2.287-.934l15.85-15.85a3.235 3.235 0 1 0-4.575-4.574l-15.85 15.85a3.222 3.222 0 0 0 0 4.574Z" fill="#FFF"/></svg>
